<svg xmlns="http://www.w3.org/2000/svg" xmlns:xlink="http://www.w3.org/1999/xlink" width="60" zoomAndPan="magnify" viewBox="0 0 45 44.999999" height="60" preserveAspectRatio="xMidYMid meet" version="1.0"><defs><clipPath id="id1"><path d="M 0 6.621094 L 45 6.621094 L 45 35.871094 L 0 35.871094 Z M 0 6.621094 " clip-rule="nonzero"/></clipPath></defs><g clip-path="url(#id1)"><path fill="#ffffff" d="M 37.386719 35.867188 L 7.199219 35.867188 C 2.921875 35.867188 -0.5625 32.398438 -0.5625 28.132812 C -0.5625 24.171875 2.445312 20.894531 6.300781 20.449219 C 6.617188 14.71875 11.398438 10.15625 17.226562 10.15625 C 17.847656 10.15625 18.488281 10.214844 19.128906 10.328125 C 21.503906 7.964844 24.75 6.621094 28.109375 6.621094 C 31.507812 6.621094 34.699219 7.9375 37.101562 10.328125 C 39.5 12.722656 40.824219 15.902344 40.824219 19.289062 C 40.824219 19.910156 40.777344 20.527344 40.6875 21.140625 C 43.382812 22.40625 45.144531 25.125 45.144531 28.132812 C 45.144531 32.398438 41.664062 35.867188 37.386719 35.867188 Z M 7.175781 22.222656 C 3.914062 22.234375 1.269531 24.882812 1.269531 28.132812 C 1.269531 31.394531 3.929688 34.046875 7.199219 34.046875 L 37.386719 34.046875 C 40.65625 34.046875 43.316406 31.394531 43.316406 28.132812 C 43.316406 25.636719 41.726562 23.398438 39.355469 22.5625 C 38.921875 22.414062 38.667969 21.964844 38.761719 21.519531 C 38.917969 20.789062 38.996094 20.039062 38.996094 19.289062 C 38.996094 16.390625 37.863281 13.667969 35.808594 11.617188 C 33.75 9.570312 31.019531 8.441406 28.109375 8.441406 C 25.082031 8.441406 22.167969 9.714844 20.109375 11.9375 C 19.886719 12.175781 19.554688 12.277344 19.238281 12.207031 C 18.558594 12.054688 17.882812 11.976562 17.226562 11.976562 C 12.203125 11.976562 8.113281 16.050781 8.113281 21.054688 C 8.113281 21.082031 8.117188 21.105469 8.117188 21.132812 C 8.121094 21.183594 8.125 21.238281 8.128906 21.292969 C 8.132812 21.539062 8.039062 21.773438 7.867188 21.949219 C 7.695312 22.125 7.460938 22.222656 7.214844 22.222656 C 7.203125 22.222656 7.1875 22.222656 7.175781 22.222656 Z M 7.175781 22.222656 " fill-opacity="1" fill-rule="nonzero"/></g></svg>