<svg xmlns="http://www.w3.org/2000/svg" xmlns:xlink="http://www.w3.org/1999/xlink" width="60" zoomAndPan="magnify" viewBox="0 0 375 374.999991" height="60" preserveAspectRatio="xMidYMid meet" version="1.0"><defs><clipPath id="id1"><path d="M 0 19.511719 L 375 19.511719 L 375 355.527344 L 0 355.527344 Z M 0 19.511719 " clip-rule="nonzero"/></clipPath></defs><g clip-path="url(#id1)"><path fill="#ffffff" d="M 187.5 272.898438 C 184.449219 272.898438 181.96875 270.417969 181.96875 267.371094 C 181.96875 264.320312 184.449219 261.839844 187.5 261.839844 C 190.550781 261.839844 193.03125 264.320312 193.03125 267.371094 C 193.03125 270.417969 190.550781 272.898438 187.5 272.898438 Z M 187.5 254.1875 C 180.21875 254.1875 174.316406 260.105469 174.316406 267.371094 C 174.316406 274.648438 180.21875 280.550781 187.5 280.550781 C 194.78125 280.550781 200.683594 274.648438 200.683594 267.371094 C 200.683594 260.105469 194.78125 254.1875 187.5 254.1875 Z M 347.210938 291.65625 L 27.789062 291.65625 C 16.679688 291.65625 7.652344 282 7.652344 270.121094 L 7.652344 243.085938 L 367.347656 243.085938 L 367.347656 270.121094 C 367.347656 282 358.320312 291.65625 347.210938 291.65625 Z M 232.148438 347.878906 L 142.851562 347.878906 L 159.382812 299.308594 L 215.617188 299.308594 Z M 27.789062 27.175781 L 347.210938 27.175781 C 358.320312 27.175781 367.347656 36.832031 367.347656 48.710938 L 367.347656 235.433594 L 7.652344 235.433594 L 7.652344 48.710938 C 7.652344 36.832031 16.679688 27.175781 27.789062 27.175781 Z M 347.210938 19.523438 L 27.789062 19.523438 C 12.464844 19.523438 0 32.617188 0 48.710938 L 0 270.121094 C 0 286.214844 12.464844 299.308594 27.789062 299.308594 L 151.296875 299.308594 L 133.882812 350.476562 C 133.496094 351.644531 133.675781 352.929688 134.390625 353.929688 C 135.125 354.929688 136.273438 355.527344 137.515625 355.527344 L 237.484375 355.527344 C 238.726562 355.527344 239.875 354.929688 240.609375 353.929688 C 241.324219 352.929688 241.503906 351.644531 241.117188 350.476562 L 223.703125 299.308594 L 347.210938 299.308594 C 362.535156 299.308594 375 286.214844 375 270.121094 L 375 48.710938 C 375 32.617188 362.535156 19.523438 347.210938 19.523438 " fill-opacity="1" fill-rule="nonzero"/></g></svg>